<?xml version="1.0" standalone="no"?>
<!DOCTYPE svg PUBLIC "-//W3C//DTD SVG 20010904//EN"
 "http://www.w3.org/TR/2001/REC-SVG-20010904/DTD/svg10.dtd">
<svg version="1.0" xmlns="http://www.w3.org/2000/svg"
 width="860.000000pt" height="860.000000pt" viewBox="0 0 860.000000 860.000000"
 preserveAspectRatio="xMidYMid meet">
<metadata>
Created by potrace 1.14, written by Peter Selinger 2001-2017
</metadata>
<g transform="translate(0.000000,860.000000) scale(0.100000,-0.100000)"
fill="#000000" stroke="none">
<path d="M2192 7879 c-24 -12 -51 -34 -60 -48 -9 -14 -21 -29 -27 -33 -6 -5
-11 -188 -13 -531 l-3 -523 -82 -39 c-45 -21 -194 -93 -332 -160 -137 -67
-306 -149 -375 -183 -69 -33 -224 -108 -345 -167 -405 -197 -490 -238 -490
-234 0 2 -13 -5 -30 -16 -16 -12 -59 -34 -95 -50 -96 -43 -138 -98 -142 -182
-1 -42 1 -49 165 -383 63 -129 149 -307 192 -395 198 -408 259 -533 345 -710
93 -192 186 -384 310 -640 37 -77 116 -239 175 -360 59 -121 142 -292 185
-380 43 -88 117 -241 165 -340 48 -99 120 -247 160 -330 40 -82 118 -242 172
-355 55 -113 128 -262 162 -332 57 -118 102 -184 115 -170 3 3 6 -1 6 -8 0 -7
3 -10 7 -7 3 4 12 2 18 -3 7 -6 37 -12 66 -14 48 -2 66 3 164 52 60 30 160 78
220 107 61 29 204 98 318 154 114 55 210 101 213 101 2 0 46 -26 97 -58 51
-32 99 -61 107 -65 8 -4 34 -20 57 -35 24 -15 75 -47 115 -71 40 -24 118 -72
173 -106 55 -34 192 -118 305 -187 113 -69 329 -201 480 -293 151 -93 415
-254 585 -358 171 -103 322 -197 337 -208 23 -16 45 -19 150 -19 117 0 124 1
137 22 8 13 50 81 94 153 109 178 102 167 193 317 45 73 143 234 220 358 76
124 168 275 204 335 111 184 420 687 456 742 19 29 34 55 34 57 0 3 24 43 53
89 28 45 57 92 64 102 6 11 62 103 125 205 62 102 136 223 165 270 114 188
145 238 192 315 28 44 65 105 83 135 18 30 43 70 55 90 13 19 33 52 45 74 25
42 34 57 59 96 20 30 416 678 441 721 10 16 16 29 14 29 -3 0 0 16 5 35 12 41
-3 107 -32 143 -10 14 -51 44 -91 68 -40 24 -80 48 -88 54 -8 5 -49 30 -90 55
-162 98 -870 532 -1158 709 -46 28 -91 56 -100 61 -9 6 -90 55 -179 110 -90
55 -178 109 -197 120 -33 19 -302 184 -350 215 -13 8 -53 32 -88 53 -34 21
-83 51 -108 67 -25 16 -54 34 -65 39 -11 5 -45 25 -75 45 l-55 36 -5 778 -5
777 -22 35 c-12 19 -37 46 -55 60 l-33 25 -1685 3 -1685 2 -43 -21z"/>
</g>
</svg>
